Land_normalized_pl12_filtered_grf
version=1
nRows=17
nColumns=37
inDegrees=yes
endheader
time		1_ground_force_vx		1_ground_force_vy		1_ground_force_vz		1_ground_force_px		1_ground_force_py		1_ground_force_pz		1_ground_torque_x		1_ground_torque_y		1_ground_torque_z		2_ground_force_vx		2_ground_force_vy		2_ground_force_vz		2_ground_force_px		2_ground_force_py		2_ground_force_pz		2_ground_torque_x		2_ground_torque_y		2_ground_torque_z		3_ground_force_vx		3_ground_force_vy		3_ground_force_vz		3_ground_force_px		3_ground_force_py		3_ground_force_pz		3_ground_torque_x		3_ground_torque_y		3_ground_torque_z		4_ground_force_vx		4_ground_force_vy		4_ground_force_vz		4_ground_force_px		4_ground_force_py		4_ground_force_pz		4_ground_torque_x		4_ground_torque_y		4_ground_torque_z		
0.747833		-11.015452		718.740522		196.217559		0.068654		0.000000		0.247913		-0.233960		15.267220		4.168016		53.610446		995.222845		198.760570		-0.151023		0.000000		0.245900		-0.113916		-2.114728		-0.422343		21.244341		1.834777		0.152639		0.375677		1.311012		1.913812		-0.095266		-0.008227		-0.000684		-18.070135		-0.322814		1.420279		-0.265229		1.309955		1.924908		0.013360		0.000239		-0.001050		
0.750687		-16.352396		722.194790		190.039377		0.069661		0.000000		0.248205		-0.335528		14.819601		3.899687		54.262265		996.051056		197.395842		-0.151218		0.000000		0.245791		-0.108435		-1.990486		-0.394473		21.269953		1.812923		0.214424		0.375676		1.310994		1.913816		-0.093934		-0.008007		-0.000947		-18.052562		-0.308836		1.436718		-0.265263		1.309963		1.924952		0.013330		0.000228		-0.001061		
0.753540		-21.498934		726.387056		184.293278		0.070558		0.000000		0.248419		-0.425999		14.393522		3.651823		55.761228		994.758215		195.989561		-0.151511		0.000000		0.245657		-0.098843		-1.763338		-0.347417		21.295947		1.779095		0.289083		0.375670		1.310982		1.913835		-0.093323		-0.007797		-0.001267		-17.970456		-0.324288		1.433992		-0.265301		1.309971		1.925003		0.012335		0.000223		-0.000984		
0.756394		-26.181822		731.663408		179.065847		0.071317		0.000000		0.248570		-0.501794		14.023234		3.432039		57.858994		991.812543		194.361808		-0.151874		0.000000		0.245526		-0.086677		-1.485863		-0.291180		21.296859		1.752469		0.366579		0.375657		1.310974		1.913871		-0.093671		-0.007708		-0.001612		-17.848493		-0.363675		1.417981		-0.265342		1.309980		1.925060		0.010512		0.000214		-0.000835		
0.759247		-30.203810		738.346453		174.332542		0.071955		0.000000		0.248726		-0.561685		13.730998		3.242080		60.275656		987.901509		192.482476		-0.152281		0.000000		0.245428		-0.074160		-1.215551		-0.236840		21.258758		1.748047		0.441835		0.375636		1.310968		1.913915		-0.095072		-0.007818		-0.001976		-17.722296		-0.415469		1.405160		-0.265383		1.309988		1.925117		0.008171		0.000192		-0.000648		
0.762101		-33.446376		746.673376		170.015486		0.072518		0.000000		0.248982		-0.606429		13.538309		3.082648		62.864384		983.825715		190.559397		-0.152722		0.000000		0.245371		-0.062367		-0.976098		-0.189064		21.183929		1.767673		0.518114		0.375610		1.310959		1.913963		-0.097376		-0.008126		-0.002382		-17.627356		-0.464165		1.415916		-0.265422		1.309997		1.925173		0.005772		0.000152		-0.000464		
0.764955		-35.847830		756.709095		166.066099		0.073038		0.000000		0.249394		-0.638008		13.467672		2.955597		65.662162		980.381250		188.996436		-0.153208		0.000000		0.245350		-0.050017		-0.746810		-0.143969		21.089980		1.800077		0.604524		0.375583		1.310945		1.914005		-0.100192		-0.008552		-0.002872		-17.587783		-0.494270		1.467683		-0.265456		1.310006		1.925221		0.003840		0.000108		-0.000321		
0.767808		-37.397415		768.259513		162.533200		0.073515		0.000000		0.249943		-0.658359		13.524768		2.861309		68.800057		978.209894		188.226926		-0.153758		0.000000		0.245352		-0.033953		-0.482859		-0.092912		21.004204		1.827145		0.708033		0.375564		1.310927		1.914037		-0.102987		-0.008959		-0.003472		-17.609222		-0.496173		1.567760		-0.265484		1.310013		1.925262		0.002824		0.000080		-0.000252		
0.770662		-38.140070		780.850138		159.567898		0.073914		0.000000		0.250537		-0.668700		13.690432		2.797661		72.329864		977.628124		188.476126		-0.154374		0.000000		0.245361		-0.011490		-0.155413		-0.029960		20.952571		1.832822		0.825248		0.375557		1.310906		1.914058		-0.105257		-0.009207		-0.004145		-17.679426		-0.470080		1.706227		-0.265506		1.310019		1.925294		0.002969		0.000079		-0.000286		
0.773515		-38.152762		793.816726		157.380136		0.074192		0.000000		0.251071		-0.669838		13.936827		2.763081		76.113422		978.580300		189.632137		-0.155030		0.000000		0.245377		0.017155		0.220536		0.042737		20.949290		1.809316		0.940357		0.375568		1.310883		1.914066		-0.106690		-0.009214		-0.004789		-17.776542		-0.424619		1.855799		-0.265522		1.310023		1.925320		0.004289		0.000102		-0.000448		
0.776369		-37.523482		806.378976		156.165562		0.074315		0.000000		0.251482		-0.662953		14.246891		2.759089		79.826254		980.678280		191.263733		-0.155673		0.000000		0.245410		0.047869		0.587993		0.114680		20.993392		1.759653		1.027666		0.375595		1.310860		1.914065		-0.107213		-0.008986		-0.005249		-17.877365		-0.374264		1.977547		-0.265532		1.310025		1.925343		0.006603		0.000138		-0.000731		
0.779222		-36.338691		817.746846		156.017947		0.074279		0.000000		0.251760		-0.649322		14.612082		2.787837		83.071253		983.315015		192.799147		-0.156245		0.000000		0.245473		0.074254		0.878891		0.172326		21.072345		1.697088		1.060558		0.375635		1.310838		1.914059		-0.106992		-0.008617		-0.005385		-17.965563		-0.335308		2.034509		-0.265539		1.310025		1.925364		0.009597		0.000179		-0.001087		
0.782076		-34.646867		827.196965		156.928652		0.074097		0.000000		0.251940		-0.629126		15.020499		2.849559		85.506710		985.873724		193.801659		-0.156704		0.000000		0.245570		0.091097		1.050322		0.206471		21.169132		1.638448		1.022375		0.375681		1.310816		1.914050		-0.106297		-0.008227		-0.005134		-18.036298		-0.320683		2.005769		-0.265542		1.310023		1.925382		0.012935		0.000230		-0.001438		
0.784929		-32.451361		834.112250		158.803368		0.073783		0.000000		0.252048		-0.601156		15.451880		2.941825		86.900472		987.847551		194.138202		-0.157029		0.000000		0.245690		0.096793		1.100307		0.216240		21.262638		1.595841		0.914504		0.375728		1.310795		1.914041		-0.105409		-0.007912		-0.004534		-18.093898		-0.336661		1.896512		-0.265540		1.310020		1.925397		0.016276		0.000303		-0.001706		
0.787783		-29.726730		838.058459		161.481116		0.073338		0.000000		0.252086		-0.563377		15.883071		3.060435		87.137029		988.907174		193.998209		-0.157224		0.000000		0.245807		0.093446		1.060502		0.208044		21.327671		1.570908		0.760447		0.375767		1.310773		1.914034		-0.104580		-0.007703		-0.003729		-18.145771		-0.382018		1.741577		-0.265532		1.310016		1.925406		0.019272		0.000406		-0.001849		
0.790636		-26.454090		838.845688		164.761986		0.072756		0.000000		0.252028		-0.513808		16.292924		3.200188		86.196771		988.900563		193.733814		-0.157299		0.000000		0.245891		0.084550		0.969994		0.190030		21.340272		1.556438		0.599248		0.375793		1.310750		1.914030		-0.104035		-0.007587		-0.002921		-18.194274		-0.450966		1.596104		-0.265516		1.310014		1.925407		0.021549		0.000535		-0.001890		
0.793490		-22.659027		836.522140		168.440687		0.072035		0.000000		0.251848		-0.451239		16.658800		3.354390		84.139360		987.779150		193.643746		-0.157267		0.000000		0.245920		0.072554		0.851763		0.166979		21.285959		1.544318		0.472457		0.375807		1.310727		1.914025		-0.103961		-0.007542		-0.002308		-18.231542		-0.537688		1.516084		-0.265493		1.310012		1.925399		0.022692		0.000670		-0.001887		
